# Blender v2.76 (sub 0) OBJ File: 'vw.blend'
# www.blender.org
mtllib vw.mtl
o Cylinder_Cylinder.001
v 0.000000 -0.050308 -1.000000
v 0.000000 0.050308 -1.000000
v 0.195090 -0.050308 -0.980785
v 0.195090 0.050308 -0.980785
v 0.382683 -0.050308 -0.923880
v 0.382683 0.050308 -0.923880
v 0.555570 -0.050308 -0.831470
v 0.555570 0.050308 -0.831470
v 0.707107 -0.050308 -0.707107
v 0.707107 0.050308 -0.707107
v 0.831470 -0.050308 -0.555570
v 0.831470 0.050308 -0.555570
v 0.923880 -0.050308 -0.382683
v 0.923880 0.050308 -0.382683
v 0.980785 -0.050308 -0.195090
v 0.980785 0.050308 -0.195090
v 1.000000 -0.050308 -0.000000
v 1.000000 0.050308 -0.000000
v 0.980785 -0.050308 0.195090
v 0.980785 0.050308 0.195090
v 0.923880 -0.050308 0.382683
v 0.923880 0.050308 0.382683
v 0.831470 -0.050308 0.555570
v 0.831470 0.050308 0.555570
v 0.707107 -0.050308 0.707107
v 0.707107 0.050308 0.707107
v 0.555570 -0.050308 0.831470
v 0.555570 0.050308 0.831470
v 0.382683 -0.050308 0.923880
v 0.382683 0.050308 0.923880
v 0.195090 -0.050308 0.980785
v 0.195090 0.050308 0.980785
v -0.000000 -0.050308 1.000000
v -0.000000 0.050308 1.000000
v -0.195091 -0.050308 0.980785
v -0.195091 0.050308 0.980785
v -0.382684 -0.050308 0.923879
v -0.382684 0.050308 0.923879
v -0.555571 -0.050308 0.831469
v -0.555571 0.050308 0.831469
v -0.707107 -0.050308 0.707106
v -0.707107 0.050308 0.707106
v -0.831470 -0.050308 0.555570
v -0.831470 0.050308 0.555570
v -0.923880 -0.050308 0.382683
v -0.923880 0.050308 0.382683
v -0.980785 -0.050308 0.195089
v -0.980785 0.050308 0.195089
v -1.000000 -0.050308 -0.000001
v -1.000000 0.050308 -0.000001
v -0.980785 -0.050308 -0.195091
v -0.980785 0.050308 -0.195091
v -0.923879 -0.050308 -0.382684
v -0.923879 0.050308 -0.382684
v -0.831469 -0.050308 -0.555571
v -0.831469 0.050308 -0.555571
v -0.707106 -0.050308 -0.707108
v -0.707106 0.050308 -0.707108
v -0.555569 -0.050308 -0.831470
v -0.555569 0.050308 -0.831470
v -0.382682 -0.050308 -0.923880
v -0.382682 0.050308 -0.923880
v -0.195089 -0.050308 -0.980786
v -0.195089 0.050308 -0.980786
vt 0.077304 0.951961
vt 0.085826 0.954654
vt 0.085317 0.962220
vt 0.094512 0.954643
vt 0.094934 0.962220
vt 0.103026 0.951928
vt 0.104362 0.959223
vt 0.111038 0.946617
vt 0.113235 0.953348
vt 0.118237 0.938918
vt 0.121208 0.944823
vt 0.124344 0.929134
vt 0.127974 0.933983
vt 0.129123 0.917647
vt 0.133269 0.921254
vt 0.132389 0.904911
vt 0.136888 0.907136
vt 0.134016 0.891427
vt 0.138691 0.892184
vt 0.133945 0.877727
vt 0.138611 0.876989
vt 0.132181 0.864352
vt 0.136653 0.862152
vt 0.128798 0.851833
vt 0.132899 0.848260
vt 0.123933 0.840664
vt 0.127501 0.835866
vt 0.117792 0.831294
vt 0.120683 0.825462
vt 0.110608 0.824094
vt 0.112710 0.817457
vt 0.102655 0.819345
vt 0.103902 0.812161
vt 0.094152 0.817169
vt 0.094613 0.809674
vt 0.085503 0.816847
vt 0.085207 0.809402
vt 0.077099 0.819089
vt 0.075926 0.811889
vt 0.069177 0.823921
vt 0.067136 0.817245
vt 0.062034 0.831179
vt 0.059199 0.825295
vt 0.055948 0.840590
vt 0.052430 0.835731
vt 0.051159 0.851782
vt 0.047095 0.848140
vt 0.047852 0.864323
vt 0.043401 0.862038
vt 0.046154 0.877723
vt 0.041491 0.876883
vt 0.046130 0.891452
vt 0.041440 0.892095
vt 0.047800 0.904958
vt 0.043268 0.907071
vt 0.051104 0.917708
vt 0.046910 0.921212
vt 0.055917 0.929200
vt 0.052227 0.933959
vt 0.062054 0.938980
vt 0.059012 0.944811
vt 0.666081 0.258494
vt 0.886207 0.394924
vt 0.580812 0.610696
vt 0.069276 0.946667
vt 0.075884 0.959223
vt 0.067001 0.953343
vt 0.280239 0.236335
vt 0.479633 0.444004
vt 0.150446 0.555366
vt 0.800938 0.747126
vt 0.769853 0.763479
vt 0.737371 0.769815
vt 0.704741 0.765890
vt 0.673216 0.751854
vt 0.644008 0.728249
vt 0.618240 0.695979
vt 0.596901 0.656287
vt 0.570592 0.560960
vt 0.566632 0.508988
vt 0.569085 0.456780
vt 0.577857 0.406340
vt 0.592611 0.359608
vt 0.612779 0.318378
vt 0.637587 0.284236
vt 0.697166 0.242142
vt 0.729648 0.235806
vt 0.762278 0.239731
vt 0.793803 0.253766
vt 0.823011 0.277371
vt 0.848780 0.309641
vt 0.870118 0.349334
vt 0.896428 0.444661
vt 0.900387 0.496632
vt 0.897934 0.548841
vt 0.889162 0.599281
vt 0.874409 0.646013
vt 0.854240 0.687242
vt 0.829432 0.721384
vt 0.349840 0.763035
vt 0.317061 0.768838
vt 0.284204 0.764297
vt 0.252532 0.749587
vt 0.223262 0.725274
vt 0.197519 0.692291
vt 0.176292 0.651907
vt 0.160398 0.605673
vt 0.146819 0.502919
vt 0.149657 0.450348
vt 0.158851 0.399672
vt 0.174047 0.352841
vt 0.194661 0.311652
vt 0.219901 0.277690
vt 0.248797 0.252258
vt 0.313018 0.230533
vt 0.345875 0.235074
vt 0.377547 0.249783
vt 0.406817 0.274096
vt 0.432560 0.307079
vt 0.453787 0.347463
vt 0.469681 0.393697
vt 0.483260 0.496451
vt 0.456032 0.646530
vt 0.480422 0.549023
vt 0.471228 0.599697
vt 0.435418 0.687718
vt 0.410178 0.721681
vt 0.381282 0.747112
vn 0.098000 0.000000 -0.995200
vn 0.290300 0.000000 -0.956900
vn 0.471400 0.000000 -0.881900
vn 0.634400 0.000000 -0.773000
vn 0.773000 0.000000 -0.634400
vn 0.881900 0.000000 -0.471400
vn 0.956900 0.000000 -0.290300
vn 0.995200 0.000000 -0.098000
vn 0.995200 0.000000 0.098000
vn 0.956900 0.000000 0.290300
vn 0.881900 0.000000 0.471400
vn 0.773000 0.000000 0.634400
vn 0.634400 0.000000 0.773000
vn 0.471400 0.000000 0.881900
vn 0.290300 0.000000 0.956900
vn 0.098000 0.000000 0.995200
vn -0.098000 0.000000 0.995200
vn -0.290300 0.000000 0.956900
vn -0.471400 0.000000 0.881900
vn -0.634400 0.000000 0.773000
vn -0.773000 0.000000 0.634400
vn -0.881900 0.000000 0.471400
vn -0.956900 0.000000 0.290300
vn -0.995200 0.000000 0.098000
vn -0.995200 0.000000 -0.098000
vn -0.956900 0.000000 -0.290300
vn -0.881900 0.000000 -0.471400
vn -0.773000 0.000000 -0.634400
vn -0.634400 0.000000 -0.773000
vn -0.471400 0.000000 -0.881900
vn 0.000000 1.000000 0.000000
vn -0.098000 0.000000 -0.995200
vn -0.290300 0.000000 -0.956900
vn 0.000000 -1.000000 0.000000
usemtl Material.002
s off
f 2/1/1 4/2/1 3/3/1
f 4/2/2 6/4/2 5/5/2
f 6/4/3 8/6/3 7/7/3
f 8/6/4 10/8/4 9/9/4
f 10/8/5 12/10/5 11/11/5
f 12/10/6 14/12/6 13/13/6
f 14/12/7 16/14/7 15/15/7
f 16/14/8 18/16/8 17/17/8
f 18/16/9 20/18/9 19/19/9
f 20/18/10 22/20/10 21/21/10
f 22/20/11 24/22/11 23/23/11
f 24/22/12 26/24/12 25/25/12
f 26/24/13 28/26/13 27/27/13
f 28/26/14 30/28/14 29/29/14
f 30/28/15 32/30/15 31/31/15
f 32/30/16 34/32/16 33/33/16
f 34/32/17 36/34/17 35/35/17
f 36/34/18 38/36/18 37/37/18
f 38/36/19 40/38/19 39/39/19
f 40/38/20 42/40/20 41/41/20
f 42/40/21 44/42/21 43/43/21
f 44/42/22 46/44/22 45/45/22
f 46/44/23 48/46/23 47/47/23
f 48/46/24 50/48/24 49/49/24
f 50/48/25 52/50/25 51/51/25
f 52/50/26 54/52/26 53/53/26
f 54/52/27 56/54/27 55/55/27
f 56/54/28 58/56/28 57/57/28
f 58/56/29 60/58/29 59/59/29
f 60/58/30 62/60/30 61/61/30
f 38/62/31 22/63/31 54/64/31
f 64/65/32 2/1/32 1/66/32
f 62/60/33 64/65/33 63/67/33
f 31/68/34 47/69/34 15/70/34
f 1/66/1 2/1/1 3/3/1
f 3/3/2 4/2/2 5/5/2
f 5/5/3 6/4/3 7/7/3
f 7/7/4 8/6/4 9/9/4
f 9/9/5 10/8/5 11/11/5
f 11/11/6 12/10/6 13/13/6
f 13/13/7 14/12/7 15/15/7
f 15/15/8 16/14/8 17/17/8
f 17/17/9 18/16/9 19/19/9
f 19/19/10 20/18/10 21/21/10
f 21/21/11 22/20/11 23/23/11
f 23/23/12 24/22/12 25/25/12
f 25/25/13 26/24/13 27/27/13
f 27/27/14 28/26/14 29/29/14
f 29/29/15 30/28/15 31/31/15
f 31/31/16 32/30/16 33/33/16
f 33/33/17 34/32/17 35/35/17
f 35/35/18 36/34/18 37/37/18
f 37/37/19 38/36/19 39/39/19
f 39/39/20 40/38/20 41/41/20
f 41/41/21 42/40/21 43/43/21
f 43/43/22 44/42/22 45/45/22
f 45/45/23 46/44/23 47/47/23
f 47/47/24 48/46/24 49/49/24
f 49/49/25 50/48/25 51/51/25
f 51/51/26 52/50/26 53/53/26
f 53/53/27 54/52/27 55/55/27
f 55/55/28 56/54/28 57/57/28
f 57/57/29 58/56/29 59/59/29
f 59/59/30 60/58/30 61/61/30
f 6/71/31 4/72/31 2/73/31
f 2/73/31 64/74/31 6/71/31
f 62/75/31 60/76/31 58/77/31
f 58/77/31 56/78/31 54/64/31
f 54/64/31 52/79/31 50/80/31
f 50/80/31 48/81/31 46/82/31
f 46/82/31 44/83/31 38/62/31
f 42/84/31 40/85/31 38/62/31
f 38/62/31 36/86/31 34/87/31
f 34/87/31 32/88/31 30/89/31
f 30/89/31 28/90/31 26/91/31
f 26/91/31 24/92/31 22/63/31
f 22/63/31 20/93/31 18/94/31
f 18/94/31 16/95/31 22/63/31
f 14/96/31 12/97/31 10/98/31
f 10/98/31 8/99/31 6/71/31
f 6/71/31 64/74/31 62/75/31
f 62/75/31 58/77/31 6/71/31
f 54/64/31 50/80/31 38/62/31
f 44/83/31 42/84/31 38/62/31
f 38/62/31 34/87/31 22/63/31
f 30/89/31 26/91/31 22/63/31
f 22/63/31 16/95/31 14/96/31
f 14/96/31 10/98/31 22/63/31
f 6/71/31 58/77/31 54/64/31
f 50/80/31 46/82/31 38/62/31
f 34/87/31 30/89/31 22/63/31
f 22/63/31 10/98/31 6/71/31
f 6/71/31 54/64/31 22/63/31
f 63/67/32 64/65/32 1/66/32
f 61/61/33 62/60/33 63/67/33
f 63/100/34 1/101/34 3/102/34
f 3/102/34 5/103/34 7/104/34
f 7/104/34 9/105/34 11/106/34
f 11/106/34 13/107/34 7/104/34
f 15/70/34 17/108/34 19/109/34
f 19/109/34 21/110/34 15/70/34
f 23/111/34 25/112/34 31/68/34
f 27/113/34 29/114/34 31/68/34
f 31/68/34 33/115/34 35/116/34
f 35/116/34 37/117/34 39/118/34
f 39/118/34 41/119/34 43/120/34
f 43/120/34 45/121/34 47/69/34
f 47/69/34 49/122/34 55/123/34
f 51/124/34 53/125/34 55/123/34
f 55/123/34 57/126/34 63/100/34
f 59/127/34 61/128/34 63/100/34
f 63/100/34 3/102/34 15/70/34
f 7/104/34 13/107/34 15/70/34
f 15/70/34 21/110/34 23/111/34
f 25/112/34 27/113/34 31/68/34
f 31/68/34 35/116/34 47/69/34
f 39/118/34 43/120/34 47/69/34
f 49/122/34 51/124/34 55/123/34
f 57/126/34 59/127/34 63/100/34
f 3/102/34 7/104/34 15/70/34
f 15/70/34 23/111/34 31/68/34
f 35/116/34 39/118/34 47/69/34
f 47/69/34 55/123/34 63/100/34
f 63/100/34 15/70/34 47/69/34
